<?xml version="1.0" encoding="UTF-8"?>
<svg width="120" height="120" viewBox="0 0 120 120" xmlns="http://www.w3.org/2000/svg">
  <!-- Shuttlecock body (white) -->
  <circle cx="45" cy="80" r="20" fill="white" stroke="#444" stroke-width="4"/>
  
  <!-- Orange band -->
  <path d="M 25 73 Q 45 68 65 73 L 60 83 Q 45 78 30 83 Z" fill="#FF9800" stroke="#444" stroke-width="2"/>
  
  <!-- Feathers -->
  <g transform="rotate(-25, 45, 80)">
    <path d="M 40 65 L 20 25 L 30 20 L 45 62 Z" fill="white" stroke="#444" stroke-width="3"/>
    <path d="M 50 65 L 50 20 L 60 20 L 55 62 Z" fill="white" stroke="#444" stroke-width="3"/>
    <path d="M 60 65 L 80 25 L 70 20 L 55 62 Z" fill="white" stroke="#444" stroke-width="3"/>
    <path d="M 65 70 L 100 40 L 95 30 L 60 62 Z" fill="white" stroke="#444" stroke-width="3"/>
    <path d="M 35 70 L 0 40 L 5 30 L 40 62 Z" fill="white" stroke="#444" stroke-width="3"/>
  </g>
  
  <!-- Netting lines on the feathers -->
  <g stroke="#444" stroke-width="1.5" fill="none" transform="rotate(-25, 45, 80)">
    <line x1="27" y1="45" x2="43" y2="60" />
    <line x1="50" y1="45" x2="50" y2="60" />
    <line x1="73" y1="45" x2="57" y2="60" />
    <line x1="80" y1="50" x2="60" y2="62" />
    <line x1="10" y1="50" x2="40" y2="62" />
  </g>
</svg>